<svg width="364" height="104" viewBox="0 0 364 104" fill="none" xmlns="http://www.w3.org/2000/svg">
<g filter="url(#filter0_d_155_1043)">
<rect x="2" y="1" width="360" height="44" rx="8" fill="white"/>
<g clip-path="url(#clip0_155_1043)">
<path d="M115.766 23.2765C115.766 22.4608 115.7 21.6406 115.559 20.8381H104.24V25.4591H110.722C110.453 26.9495 109.589 28.2679 108.323 29.1056V32.104H112.19C114.461 30.014 115.766 26.9274 115.766 23.2765Z" fill="#4285F4"/>
<path d="M104.24 35.0008C107.476 35.0008 110.206 33.9382 112.194 32.1039L108.327 29.1055C107.252 29.8375 105.863 30.252 104.244 30.252C101.114 30.252 98.4593 28.1399 97.5069 25.3003H93.5165V28.3912C95.5536 32.4434 99.7028 35.0008 104.24 35.0008Z" fill="#34A853"/>
<path d="M97.5025 25.3002C96.9999 23.8099 96.9999 22.196 97.5025 20.7057V17.6147H93.5165C91.8145 21.0055 91.8145 25.0004 93.5165 28.3912L97.5025 25.3002Z" fill="#FBBC04"/>
<path d="M104.24 15.7497C105.951 15.7232 107.604 16.367 108.843 17.5487L112.269 14.1226C110.1 12.0855 107.221 10.9655 104.24 11.0008C99.7028 11.0008 95.5536 13.5582 93.5165 17.6148L97.5025 20.7058C98.4505 17.8617 101.109 15.7497 104.24 15.7497Z" fill="#EA4335"/>
</g>
<path d="M129.148 29V17.3636H136.716V19.1307H131.256V22.2898H136.324V24.0568H131.256V27.233H136.761V29H129.148ZM140.832 23.8864V29H138.776V20.2727H140.741V21.7557H140.844C141.045 21.267 141.365 20.8788 141.804 20.5909C142.247 20.303 142.795 20.1591 143.446 20.1591C144.048 20.1591 144.573 20.2879 145.02 20.5455C145.471 20.803 145.819 21.1761 146.065 21.6648C146.315 22.1534 146.438 22.7462 146.435 23.4432V29H144.378V23.7614C144.378 23.178 144.226 22.7216 143.923 22.392C143.624 22.0625 143.209 21.8977 142.679 21.8977C142.319 21.8977 141.999 21.9773 141.719 22.1364C141.442 22.2917 141.224 22.517 141.065 22.8125C140.91 23.108 140.832 23.4659 140.832 23.8864ZM152.884 20.2727V21.8636H147.866V20.2727H152.884ZM149.105 18.1818H151.162V26.375C151.162 26.6515 151.204 26.8636 151.287 27.0114C151.374 27.1553 151.488 27.2538 151.628 27.3068C151.768 27.3598 151.923 27.3864 152.094 27.3864C152.223 27.3864 152.34 27.3769 152.446 27.358C152.556 27.339 152.639 27.322 152.696 27.3068L153.043 28.9148C152.933 28.9527 152.776 28.9943 152.571 29.0398C152.37 29.0852 152.124 29.1117 151.832 29.1193C151.317 29.1345 150.853 29.0568 150.44 28.8864C150.027 28.7121 149.7 28.4432 149.457 28.0795C149.219 27.7159 149.101 27.2614 149.105 26.7159V18.1818ZM154.604 29V20.2727H156.598V21.7273H156.689C156.848 21.2235 157.121 20.8352 157.507 20.5625C157.897 20.286 158.342 20.1477 158.842 20.1477C158.956 20.1477 159.083 20.1534 159.223 20.1648C159.367 20.1723 159.486 20.1856 159.581 20.2045V22.0966C159.494 22.0663 159.356 22.0398 159.166 22.017C158.981 21.9905 158.801 21.9773 158.626 21.9773C158.251 21.9773 157.914 22.0587 157.615 22.2216C157.32 22.3807 157.087 22.6023 156.916 22.8864C156.746 23.1705 156.661 23.4981 156.661 23.8693V29H154.604ZM163.303 29.1761C162.75 29.1761 162.251 29.0777 161.808 28.8807C161.369 28.6799 161.02 28.3845 160.763 27.9943C160.509 27.6042 160.382 27.1231 160.382 26.5511C160.382 26.0587 160.473 25.6515 160.655 25.3295C160.837 25.0076 161.085 24.75 161.399 24.5568C161.714 24.3636 162.068 24.2178 162.462 24.1193C162.859 24.017 163.27 23.9432 163.695 23.8977C164.206 23.8447 164.621 23.7973 164.939 23.7557C165.257 23.7102 165.488 23.642 165.632 23.5511C165.78 23.4564 165.854 23.3106 165.854 23.1136V23.0795C165.854 22.6515 165.727 22.3201 165.473 22.0852C165.219 21.8504 164.854 21.733 164.376 21.733C163.873 21.733 163.473 21.8428 163.178 22.0625C162.886 22.2822 162.689 22.5417 162.587 22.8409L160.666 22.5682C160.818 22.0379 161.068 21.5947 161.416 21.2386C161.765 20.8788 162.191 20.6098 162.695 20.4318C163.198 20.25 163.755 20.1591 164.365 20.1591C164.786 20.1591 165.204 20.2083 165.621 20.3068C166.037 20.4053 166.418 20.5682 166.763 20.7955C167.107 21.0189 167.384 21.3239 167.592 21.7102C167.804 22.0966 167.911 22.5795 167.911 23.1591V29H165.933V27.8011H165.865C165.74 28.0436 165.564 28.2708 165.337 28.483C165.113 28.6913 164.831 28.8598 164.49 28.9886C164.153 29.1136 163.757 29.1761 163.303 29.1761ZM163.837 27.6648C164.25 27.6648 164.607 27.5833 164.911 27.4205C165.214 27.2538 165.446 27.0341 165.609 26.7614C165.776 26.4886 165.859 26.1913 165.859 25.8693V24.8409C165.795 24.8939 165.685 24.9432 165.53 24.9886C165.378 25.0341 165.208 25.0739 165.018 25.108C164.829 25.142 164.642 25.1723 164.456 25.1989C164.27 25.2254 164.109 25.2481 163.973 25.267C163.666 25.3087 163.392 25.3769 163.149 25.4716C162.907 25.5663 162.715 25.6989 162.575 25.8693C162.435 26.036 162.365 26.2519 162.365 26.517C162.365 26.8958 162.503 27.1818 162.78 27.375C163.056 27.5682 163.409 27.6648 163.837 27.6648ZM169.979 29V20.2727H171.973V21.7273H172.064C172.223 21.2235 172.496 20.8352 172.882 20.5625C173.272 20.286 173.717 20.1477 174.217 20.1477C174.331 20.1477 174.458 20.1534 174.598 20.1648C174.742 20.1723 174.861 20.1856 174.956 20.2045V22.0966C174.869 22.0663 174.731 22.0398 174.541 22.017C174.356 21.9905 174.176 21.9773 174.001 21.9773C173.626 21.9773 173.289 22.0587 172.99 22.2216C172.695 22.3807 172.462 22.6023 172.291 22.8864C172.121 23.1705 172.036 23.4981 172.036 23.8693V29H169.979ZM184.098 29.1705C183.227 29.1705 182.479 28.9792 181.854 28.5966C181.232 28.214 180.753 27.6856 180.416 27.0114C180.083 26.3333 179.916 25.553 179.916 24.6705C179.916 23.7841 180.087 23.0019 180.428 22.3239C180.768 21.642 181.25 21.1117 181.871 20.733C182.496 20.3504 183.234 20.1591 184.087 20.1591C184.795 20.1591 185.422 20.2898 185.967 20.5511C186.517 20.8087 186.954 21.1742 187.28 21.6477C187.606 22.1174 187.791 22.6667 187.837 23.2955H185.871C185.791 22.875 185.602 22.5246 185.303 22.2443C185.007 21.9602 184.611 21.8182 184.115 21.8182C183.695 21.8182 183.325 21.9318 183.007 22.1591C182.689 22.3826 182.441 22.7045 182.263 23.125C182.089 23.5455 182.001 24.0492 182.001 24.6364C182.001 25.2311 182.089 25.7424 182.263 26.1705C182.437 26.5947 182.681 26.9223 182.996 27.1534C183.314 27.3807 183.687 27.4943 184.115 27.4943C184.418 27.4943 184.689 27.4375 184.928 27.3239C185.17 27.2064 185.373 27.0379 185.536 26.8182C185.698 26.5985 185.81 26.3314 185.871 26.017H187.837C187.787 26.6345 187.606 27.1818 187.291 27.6591C186.977 28.1326 186.549 28.5038 186.007 28.7727C185.465 29.0379 184.829 29.1705 184.098 29.1705ZM193.332 29.1705C192.48 29.1705 191.741 28.983 191.116 28.608C190.491 28.233 190.007 27.7083 189.662 27.0341C189.321 26.3598 189.151 25.572 189.151 24.6705C189.151 23.7689 189.321 22.9792 189.662 22.3011C190.007 21.6231 190.491 21.0966 191.116 20.7216C191.741 20.3466 192.48 20.1591 193.332 20.1591C194.185 20.1591 194.923 20.3466 195.548 20.7216C196.173 21.0966 196.656 21.6231 196.997 22.3011C197.342 22.9792 197.514 23.7689 197.514 24.6705C197.514 25.572 197.342 26.3598 196.997 27.0341C196.656 27.7083 196.173 28.233 195.548 28.608C194.923 28.983 194.185 29.1705 193.332 29.1705ZM193.344 27.5227C193.806 27.5227 194.192 27.3958 194.503 27.142C194.813 26.8845 195.045 26.5398 195.196 26.108C195.351 25.6761 195.429 25.1951 195.429 24.6648C195.429 24.1307 195.351 23.6477 195.196 23.2159C195.045 22.7803 194.813 22.4337 194.503 22.1761C194.192 21.9186 193.806 21.7898 193.344 21.7898C192.87 21.7898 192.476 21.9186 192.162 22.1761C191.851 22.4337 191.618 22.7803 191.463 23.2159C191.312 23.6477 191.236 24.1307 191.236 24.6648C191.236 25.1951 191.312 25.6761 191.463 26.108C191.618 26.5398 191.851 26.8845 192.162 27.142C192.476 27.3958 192.87 27.5227 193.344 27.5227ZM199.26 29V20.2727H201.226V21.7557H201.328C201.51 21.2557 201.811 20.8655 202.232 20.5852C202.652 20.3011 203.154 20.1591 203.737 20.1591C204.328 20.1591 204.826 20.303 205.232 20.5909C205.641 20.875 205.929 21.2633 206.095 21.7557H206.186C206.379 21.2708 206.705 20.8845 207.163 20.5966C207.625 20.3049 208.173 20.1591 208.805 20.1591C209.608 20.1591 210.264 20.4129 210.771 20.9205C211.279 21.428 211.533 22.1686 211.533 23.142V29H209.47V23.4602C209.47 22.9186 209.326 22.5227 209.038 22.2727C208.75 22.0189 208.398 21.892 207.982 21.892C207.485 21.892 207.097 22.0473 206.817 22.358C206.54 22.6648 206.402 23.0644 206.402 23.5568V29H204.385V23.375C204.385 22.9242 204.249 22.5644 203.976 22.2955C203.707 22.0265 203.355 21.892 202.919 21.892C202.624 21.892 202.355 21.9678 202.112 22.1193C201.87 22.267 201.677 22.4773 201.533 22.75C201.389 23.0189 201.317 23.3333 201.317 23.6932V29H199.26ZM225.474 21.0795C225.38 20.7727 225.249 20.4981 225.082 20.2557C224.92 20.0095 224.723 19.7992 224.491 19.625C224.264 19.4508 224.003 19.3201 223.707 19.233C223.412 19.142 223.09 19.0966 222.741 19.0966C222.116 19.0966 221.56 19.2538 221.071 19.5682C220.582 19.8826 220.198 20.3447 219.918 20.9545C219.641 21.5606 219.503 22.2992 219.503 23.1705C219.503 24.0492 219.641 24.7936 219.918 25.4034C220.194 26.0133 220.579 26.4773 221.071 26.7955C221.563 27.1098 222.135 27.267 222.787 27.267C223.378 27.267 223.889 27.1534 224.321 26.9261C224.757 26.6989 225.092 26.3769 225.327 25.9602C225.562 25.5398 225.679 25.0473 225.679 24.483L226.156 24.5568H222.997V22.9091H227.719V24.3068C227.719 25.303 227.507 26.1648 227.082 26.892C226.658 27.6193 226.075 28.1799 225.332 28.5739C224.59 28.964 223.738 29.1591 222.776 29.1591C221.704 29.1591 220.762 28.9186 219.952 28.4375C219.145 27.9527 218.514 27.2652 218.06 26.375C217.609 25.4811 217.384 24.4205 217.384 23.1932C217.384 22.2538 217.516 21.4148 217.781 20.6761C218.05 19.9375 218.425 19.3106 218.906 18.7955C219.387 18.2765 219.952 17.8826 220.599 17.6136C221.247 17.3409 221.952 17.2045 222.713 17.2045C223.357 17.2045 223.957 17.2992 224.514 17.4886C225.071 17.6742 225.565 17.9394 225.997 18.2841C226.433 18.6288 226.791 19.0379 227.071 19.5114C227.351 19.9848 227.535 20.5076 227.622 21.0795H225.474ZM233.473 29.1705C232.621 29.1705 231.882 28.983 231.257 28.608C230.632 28.233 230.147 27.7083 229.803 27.0341C229.462 26.3598 229.291 25.572 229.291 24.6705C229.291 23.7689 229.462 22.9792 229.803 22.3011C230.147 21.6231 230.632 21.0966 231.257 20.7216C231.882 20.3466 232.621 20.1591 233.473 20.1591C234.325 20.1591 235.064 20.3466 235.689 20.7216C236.314 21.0966 236.797 21.6231 237.138 22.3011C237.482 22.9792 237.655 23.7689 237.655 24.6705C237.655 25.572 237.482 26.3598 237.138 27.0341C236.797 27.7083 236.314 28.233 235.689 28.608C235.064 28.983 234.325 29.1705 233.473 29.1705ZM233.484 27.5227C233.946 27.5227 234.333 27.3958 234.643 27.142C234.954 26.8845 235.185 26.5398 235.337 26.108C235.492 25.6761 235.57 25.1951 235.57 24.6648C235.57 24.1307 235.492 23.6477 235.337 23.2159C235.185 22.7803 234.954 22.4337 234.643 22.1761C234.333 21.9186 233.946 21.7898 233.484 21.7898C233.011 21.7898 232.617 21.9186 232.303 22.1761C231.992 22.4337 231.759 22.7803 231.604 23.2159C231.452 23.6477 231.376 24.1307 231.376 24.6648C231.376 25.1951 231.452 25.6761 231.604 26.108C231.759 26.5398 231.992 26.8845 232.303 27.142C232.617 27.3958 233.011 27.5227 233.484 27.5227ZM243.207 29.1705C242.355 29.1705 241.616 28.983 240.991 28.608C240.366 28.233 239.882 27.7083 239.537 27.0341C239.196 26.3598 239.026 25.572 239.026 24.6705C239.026 23.7689 239.196 22.9792 239.537 22.3011C239.882 21.6231 240.366 21.0966 240.991 20.7216C241.616 20.3466 242.355 20.1591 243.207 20.1591C244.06 20.1591 244.798 20.3466 245.423 20.7216C246.048 21.0966 246.531 21.6231 246.872 22.3011C247.217 22.9792 247.389 23.7689 247.389 24.6705C247.389 25.572 247.217 26.3598 246.872 27.0341C246.531 27.7083 246.048 28.233 245.423 28.608C244.798 28.983 244.06 29.1705 243.207 29.1705ZM243.219 27.5227C243.681 27.5227 244.067 27.3958 244.378 27.142C244.688 26.8845 244.92 26.5398 245.071 26.108C245.226 25.6761 245.304 25.1951 245.304 24.6648C245.304 24.1307 245.226 23.6477 245.071 23.2159C244.92 22.7803 244.688 22.4337 244.378 22.1761C244.067 21.9186 243.681 21.7898 243.219 21.7898C242.745 21.7898 242.351 21.9186 242.037 22.1761C241.726 22.4337 241.493 22.7803 241.338 23.2159C241.187 23.6477 241.111 24.1307 241.111 24.6648C241.111 25.1951 241.187 25.6761 241.338 26.108C241.493 26.5398 241.726 26.8845 242.037 27.142C242.351 27.3958 242.745 27.5227 243.219 27.5227ZM252.93 32.4545C252.192 32.4545 251.557 32.3542 251.027 32.1534C250.497 31.9564 250.071 31.6913 249.749 31.358C249.427 31.0246 249.203 30.6553 249.078 30.25L250.93 29.8011C251.014 29.9716 251.135 30.1402 251.294 30.3068C251.453 30.4773 251.667 30.6174 251.936 30.7273C252.209 30.8409 252.552 30.8977 252.964 30.8977C253.548 30.8977 254.031 30.7557 254.413 30.4716C254.796 30.1913 254.987 29.7292 254.987 29.0852V27.4318H254.885C254.779 27.6439 254.624 27.8617 254.419 28.0852C254.218 28.3087 253.951 28.4962 253.618 28.6477C253.288 28.7992 252.874 28.875 252.374 28.875C251.703 28.875 251.095 28.7178 250.55 28.4034C250.008 28.0852 249.576 27.6117 249.254 26.983C248.936 26.3504 248.777 25.5587 248.777 24.608C248.777 23.6496 248.936 22.8409 249.254 22.1818C249.576 21.5189 250.01 21.017 250.555 20.6761C251.101 20.3314 251.709 20.1591 252.379 20.1591C252.891 20.1591 253.311 20.2462 253.641 20.4205C253.974 20.5909 254.239 20.7973 254.436 21.0398C254.633 21.2784 254.783 21.5038 254.885 21.7159H254.999V20.2727H257.027V29.142C257.027 29.8883 256.849 30.5057 256.493 30.9943C256.137 31.483 255.65 31.8485 255.033 32.0909C254.415 32.3333 253.714 32.4545 252.93 32.4545ZM252.947 27.2614C253.383 27.2614 253.754 27.1553 254.061 26.9432C254.368 26.7311 254.601 26.4261 254.76 26.0284C254.919 25.6307 254.999 25.1534 254.999 24.5966C254.999 24.0473 254.919 23.5663 254.76 23.1534C254.605 22.7405 254.374 22.4205 254.067 22.1932C253.764 21.9621 253.391 21.8466 252.947 21.8466C252.489 21.8466 252.107 21.9659 251.8 22.2045C251.493 22.4432 251.262 22.7708 251.107 23.1875C250.951 23.6004 250.874 24.0701 250.874 24.5966C250.874 25.1307 250.951 25.5985 251.107 26C251.266 26.3977 251.499 26.7083 251.805 26.9318C252.116 27.1515 252.497 27.2614 252.947 27.2614ZM261.192 17.3636V29H259.135V17.3636H261.192ZM267.17 29.1705C266.295 29.1705 265.54 28.9886 264.903 28.625C264.271 28.2576 263.784 27.7386 263.443 27.0682C263.102 26.3939 262.932 25.6004 262.932 24.6875C262.932 23.7898 263.102 23.0019 263.443 22.3239C263.788 21.642 264.269 21.1117 264.886 20.733C265.504 20.3504 266.229 20.1591 267.062 20.1591C267.6 20.1591 268.108 20.2462 268.585 20.4205C269.066 20.5909 269.491 20.8561 269.858 21.2159C270.229 21.5758 270.521 22.0341 270.733 22.5909C270.945 23.1439 271.051 23.803 271.051 24.5682V25.1989H263.898V23.8125H269.08C269.076 23.4186 268.991 23.0682 268.824 22.7614C268.657 22.4508 268.424 22.2064 268.125 22.0284C267.83 21.8504 267.485 21.7614 267.091 21.7614C266.67 21.7614 266.301 21.8636 265.983 22.0682C265.665 22.2689 265.417 22.5341 265.239 22.8636C265.064 23.1894 264.975 23.5473 264.972 23.9375V25.1477C264.972 25.6553 265.064 26.0909 265.25 26.4545C265.436 26.8144 265.695 27.0909 266.028 27.2841C266.362 27.4735 266.752 27.5682 267.199 27.5682C267.498 27.5682 267.769 27.5265 268.011 27.4432C268.254 27.3561 268.464 27.2292 268.642 27.0625C268.82 26.8958 268.955 26.6894 269.045 26.4432L270.966 26.6591C270.845 27.1667 270.614 27.6098 270.273 27.9886C269.936 28.3636 269.504 28.6553 268.977 28.8636C268.451 29.0682 267.848 29.1705 267.17 29.1705Z" fill="#344054"/>
<rect x="2.5" y="1.5" width="359" height="43" rx="7.5" stroke="#D0D5DD"/>
</g>
<g filter="url(#filter1_d_155_1043)">
<rect x="2" y="57" width="360" height="44" rx="8" fill="white"/>
<g clip-path="url(#clip1_155_1043)">
<path d="M105.5 79C105.5 72.3726 100.127 67 93.5 67C86.8726 67 81.5 72.3726 81.5 79C81.5 84.9895 85.8882 89.954 91.625 90.8542V82.4688H88.5781V79H91.625V76.3563C91.625 73.3488 93.4166 71.6875 96.1576 71.6875C97.4701 71.6875 98.8438 71.9219 98.8438 71.9219V74.875H97.3306C95.84 74.875 95.375 75.8001 95.375 76.75V79H98.7031L98.1711 82.4688H95.375V90.8542C101.112 89.954 105.5 84.9895 105.5 79Z" fill="#1877F2"/>
<path d="M98.1711 82.4688L98.7031 79H95.375V76.75C95.375 75.801 95.84 74.875 97.3306 74.875H98.8438V71.9219C98.8438 71.9219 97.4705 71.6875 96.1576 71.6875C93.4166 71.6875 91.625 73.3488 91.625 76.3563V79H88.5781V82.4688H91.625V90.8542C92.8674 91.0486 94.1326 91.0486 95.375 90.8542V82.4688H98.1711Z" fill="white"/>
</g>
<path d="M118.648 85V73.3636H126.216V75.1307H120.756V78.2898H125.824V80.0568H120.756V83.233H126.261V85H118.648ZM130.332 79.8864V85H128.276V76.2727H130.241V77.7557H130.344C130.545 77.267 130.865 76.8788 131.304 76.5909C131.747 76.303 132.295 76.1591 132.946 76.1591C133.548 76.1591 134.073 76.2879 134.52 76.5455C134.971 76.803 135.319 77.1761 135.565 77.6648C135.815 78.1534 135.938 78.7462 135.935 79.4432V85H133.878V79.7614C133.878 79.178 133.726 78.7216 133.423 78.392C133.124 78.0625 132.709 77.8977 132.179 77.8977C131.819 77.8977 131.499 77.9773 131.219 78.1364C130.942 78.2917 130.724 78.517 130.565 78.8125C130.41 79.108 130.332 79.4659 130.332 79.8864ZM142.384 76.2727V77.8636H137.366V76.2727H142.384ZM138.605 74.1818H140.662V82.375C140.662 82.6515 140.704 82.8636 140.787 83.0114C140.874 83.1553 140.988 83.2538 141.128 83.3068C141.268 83.3598 141.423 83.3864 141.594 83.3864C141.723 83.3864 141.84 83.3769 141.946 83.358C142.056 83.339 142.139 83.322 142.196 83.3068L142.543 84.9148C142.433 84.9527 142.276 84.9943 142.071 85.0398C141.87 85.0852 141.624 85.1117 141.332 85.1193C140.817 85.1345 140.353 85.0568 139.94 84.8864C139.527 84.7121 139.2 84.4432 138.957 84.0795C138.719 83.7159 138.601 83.2614 138.605 82.7159V74.1818ZM144.104 85V76.2727H146.098V77.7273H146.189C146.348 77.2235 146.621 76.8352 147.007 76.5625C147.397 76.286 147.842 76.1477 148.342 76.1477C148.456 76.1477 148.583 76.1534 148.723 76.1648C148.867 76.1723 148.986 76.1856 149.081 76.2045V78.0966C148.994 78.0663 148.856 78.0398 148.666 78.017C148.481 77.9905 148.301 77.9773 148.126 77.9773C147.751 77.9773 147.414 78.0587 147.115 78.2216C146.82 78.3807 146.587 78.6023 146.416 78.8864C146.246 79.1705 146.161 79.4981 146.161 79.8693V85H144.104ZM152.803 85.1761C152.25 85.1761 151.751 85.0777 151.308 84.8807C150.869 84.6799 150.52 84.3845 150.263 83.9943C150.009 83.6042 149.882 83.1231 149.882 82.5511C149.882 82.0587 149.973 81.6515 150.155 81.3295C150.337 81.0076 150.585 80.75 150.899 80.5568C151.214 80.3636 151.568 80.2178 151.962 80.1193C152.359 80.017 152.77 79.9432 153.195 79.8977C153.706 79.8447 154.121 79.7973 154.439 79.7557C154.757 79.7102 154.988 79.642 155.132 79.5511C155.28 79.4564 155.354 79.3106 155.354 79.1136V79.0795C155.354 78.6515 155.227 78.3201 154.973 78.0852C154.719 77.8504 154.354 77.733 153.876 77.733C153.373 77.733 152.973 77.8428 152.678 78.0625C152.386 78.2822 152.189 78.5417 152.087 78.8409L150.166 78.5682C150.318 78.0379 150.568 77.5947 150.916 77.2386C151.265 76.8788 151.691 76.6098 152.195 76.4318C152.698 76.25 153.255 76.1591 153.865 76.1591C154.286 76.1591 154.704 76.2083 155.121 76.3068C155.537 76.4053 155.918 76.5682 156.263 76.7955C156.607 77.0189 156.884 77.3239 157.092 77.7102C157.304 78.0966 157.411 78.5795 157.411 79.1591V85H155.433V83.8011H155.365C155.24 84.0436 155.064 84.2708 154.837 84.483C154.613 84.6913 154.331 84.8598 153.99 84.9886C153.653 85.1136 153.257 85.1761 152.803 85.1761ZM153.337 83.6648C153.75 83.6648 154.107 83.5833 154.411 83.4205C154.714 83.2538 154.946 83.0341 155.109 82.7614C155.276 82.4886 155.359 82.1913 155.359 81.8693V80.8409C155.295 80.8939 155.185 80.9432 155.03 80.9886C154.878 81.0341 154.708 81.0739 154.518 81.108C154.329 81.142 154.142 81.1723 153.956 81.1989C153.77 81.2254 153.609 81.2481 153.473 81.267C153.166 81.3087 152.892 81.3769 152.649 81.4716C152.407 81.5663 152.215 81.6989 152.075 81.8693C151.935 82.036 151.865 82.2519 151.865 82.517C151.865 82.8958 152.003 83.1818 152.28 83.375C152.556 83.5682 152.909 83.6648 153.337 83.6648ZM159.479 85V76.2727H161.473V77.7273H161.564C161.723 77.2235 161.996 76.8352 162.382 76.5625C162.772 76.286 163.217 76.1477 163.717 76.1477C163.831 76.1477 163.958 76.1534 164.098 76.1648C164.242 76.1723 164.361 76.1856 164.456 76.2045V78.0966C164.369 78.0663 164.231 78.0398 164.041 78.017C163.856 77.9905 163.676 77.9773 163.501 77.9773C163.126 77.9773 162.789 78.0587 162.49 78.2216C162.195 78.3807 161.962 78.6023 161.791 78.8864C161.621 79.1705 161.536 79.4981 161.536 79.8693V85H159.479ZM173.598 85.1705C172.727 85.1705 171.979 84.9792 171.354 84.5966C170.732 84.214 170.253 83.6856 169.916 83.0114C169.583 82.3333 169.416 81.553 169.416 80.6705C169.416 79.7841 169.587 79.0019 169.928 78.3239C170.268 77.642 170.75 77.1117 171.371 76.733C171.996 76.3504 172.734 76.1591 173.587 76.1591C174.295 76.1591 174.922 76.2898 175.467 76.5511C176.017 76.8087 176.454 77.1742 176.78 77.6477C177.106 78.1174 177.291 78.6667 177.337 79.2955H175.371C175.291 78.875 175.102 78.5246 174.803 78.2443C174.507 77.9602 174.111 77.8182 173.615 77.8182C173.195 77.8182 172.825 77.9318 172.507 78.1591C172.189 78.3826 171.941 78.7045 171.763 79.125C171.589 79.5455 171.501 80.0492 171.501 80.6364C171.501 81.2311 171.589 81.7424 171.763 82.1705C171.937 82.5947 172.181 82.9223 172.496 83.1534C172.814 83.3807 173.187 83.4943 173.615 83.4943C173.918 83.4943 174.189 83.4375 174.428 83.3239C174.67 83.2064 174.873 83.0379 175.036 82.8182C175.198 82.5985 175.31 82.3314 175.371 82.017H177.337C177.287 82.6345 177.106 83.1818 176.791 83.6591C176.477 84.1326 176.049 84.5038 175.507 84.7727C174.965 85.0379 174.329 85.1705 173.598 85.1705ZM182.832 85.1705C181.98 85.1705 181.241 84.983 180.616 84.608C179.991 84.233 179.507 83.7083 179.162 83.0341C178.821 82.3598 178.651 81.572 178.651 80.6705C178.651 79.7689 178.821 78.9792 179.162 78.3011C179.507 77.6231 179.991 77.0966 180.616 76.7216C181.241 76.3466 181.98 76.1591 182.832 76.1591C183.685 76.1591 184.423 76.3466 185.048 76.7216C185.673 77.0966 186.156 77.6231 186.497 78.3011C186.842 78.9792 187.014 79.7689 187.014 80.6705C187.014 81.572 186.842 82.3598 186.497 83.0341C186.156 83.7083 185.673 84.233 185.048 84.608C184.423 84.983 183.685 85.1705 182.832 85.1705ZM182.844 83.5227C183.306 83.5227 183.692 83.3958 184.003 83.142C184.313 82.8845 184.545 82.5398 184.696 82.108C184.851 81.6761 184.929 81.1951 184.929 80.6648C184.929 80.1307 184.851 79.6477 184.696 79.2159C184.545 78.7803 184.313 78.4337 184.003 78.1761C183.692 77.9186 183.306 77.7898 182.844 77.7898C182.37 77.7898 181.976 77.9186 181.662 78.1761C181.351 78.4337 181.118 78.7803 180.963 79.2159C180.812 79.6477 180.736 80.1307 180.736 80.6648C180.736 81.1951 180.812 81.6761 180.963 82.108C181.118 82.5398 181.351 82.8845 181.662 83.142C181.976 83.3958 182.37 83.5227 182.844 83.5227ZM188.76 85V76.2727H190.726V77.7557H190.828C191.01 77.2557 191.311 76.8655 191.732 76.5852C192.152 76.3011 192.654 76.1591 193.237 76.1591C193.828 76.1591 194.326 76.303 194.732 76.5909C195.141 76.875 195.429 77.2633 195.595 77.7557H195.686C195.879 77.2708 196.205 76.8845 196.663 76.5966C197.125 76.3049 197.673 76.1591 198.305 76.1591C199.108 76.1591 199.764 76.4129 200.271 76.9205C200.779 77.428 201.033 78.1686 201.033 79.142V85H198.97V79.4602C198.97 78.9186 198.826 78.5227 198.538 78.2727C198.25 78.0189 197.898 77.892 197.482 77.892C196.985 77.892 196.597 78.0473 196.317 78.358C196.04 78.6648 195.902 79.0644 195.902 79.5568V85H193.885V79.375C193.885 78.9242 193.749 78.5644 193.476 78.2955C193.207 78.0265 192.855 77.892 192.419 77.892C192.124 77.892 191.855 77.9678 191.612 78.1193C191.37 78.267 191.177 78.4773 191.033 78.75C190.889 79.0189 190.817 79.3333 190.817 79.6932V85H188.76ZM207.179 85V73.3636H214.634V75.1307H209.287V78.2898H214.122V80.0568H209.287V85H207.179ZM218.896 85.1761C218.343 85.1761 217.845 85.0777 217.402 84.8807C216.963 84.6799 216.614 84.3845 216.357 83.9943C216.103 83.6042 215.976 83.1231 215.976 82.5511C215.976 82.0587 216.067 81.6515 216.249 81.3295C216.43 81.0076 216.679 80.75 216.993 80.5568C217.307 80.3636 217.661 80.2178 218.055 80.1193C218.453 80.017 218.864 79.9432 219.288 79.8977C219.8 79.8447 220.214 79.7973 220.533 79.7557C220.851 79.7102 221.082 79.642 221.226 79.5511C221.374 79.4564 221.447 79.3106 221.447 79.1136V79.0795C221.447 78.6515 221.321 78.3201 221.067 78.0852C220.813 77.8504 220.447 77.733 219.97 77.733C219.466 77.733 219.067 77.8428 218.771 78.0625C218.48 78.2822 218.283 78.5417 218.18 78.8409L216.26 78.5682C216.411 78.0379 216.661 77.5947 217.01 77.2386C217.358 76.8788 217.785 76.6098 218.288 76.4318C218.792 76.25 219.349 76.1591 219.959 76.1591C220.379 76.1591 220.798 76.2083 221.214 76.3068C221.631 76.4053 222.012 76.5682 222.357 76.7955C222.701 77.0189 222.978 77.3239 223.186 77.7102C223.398 78.0966 223.504 78.5795 223.504 79.1591V85H221.527V83.8011H221.459C221.334 84.0436 221.158 84.2708 220.93 84.483C220.707 84.6913 220.425 84.8598 220.084 84.9886C219.747 85.1136 219.351 85.1761 218.896 85.1761ZM219.43 83.6648C219.843 83.6648 220.201 83.5833 220.504 83.4205C220.807 83.2538 221.04 83.0341 221.203 82.7614C221.37 82.4886 221.453 82.1913 221.453 81.8693V80.8409C221.389 80.8939 221.279 80.9432 221.124 80.9886C220.972 81.0341 220.802 81.0739 220.612 81.108C220.423 81.142 220.235 81.1723 220.05 81.1989C219.864 81.2254 219.703 81.2481 219.567 81.267C219.26 81.3087 218.985 81.3769 218.743 81.4716C218.5 81.5663 218.309 81.6989 218.169 81.8693C218.029 82.036 217.959 82.2519 217.959 82.517C217.959 82.8958 218.097 83.1818 218.374 83.375C218.65 83.5682 219.002 83.6648 219.43 83.6648ZM229.379 85.1705C228.508 85.1705 227.76 84.9792 227.135 84.5966C226.514 84.214 226.035 83.6856 225.697 83.0114C225.364 82.3333 225.197 81.553 225.197 80.6705C225.197 79.7841 225.368 79.0019 225.709 78.3239C226.05 77.642 226.531 77.1117 227.152 76.733C227.777 76.3504 228.516 76.1591 229.368 76.1591C230.076 76.1591 230.703 76.2898 231.249 76.5511C231.798 76.8087 232.235 77.1742 232.561 77.6477C232.887 78.1174 233.072 78.6667 233.118 79.2955H231.152C231.072 78.875 230.883 78.5246 230.584 78.2443C230.288 77.9602 229.893 77.8182 229.396 77.8182C228.976 77.8182 228.607 77.9318 228.288 78.1591C227.97 78.3826 227.722 78.7045 227.544 79.125C227.37 79.5455 227.283 80.0492 227.283 80.6364C227.283 81.2311 227.37 81.7424 227.544 82.1705C227.718 82.5947 227.963 82.9223 228.277 83.1534C228.595 83.3807 228.968 83.4943 229.396 83.4943C229.699 83.4943 229.97 83.4375 230.209 83.3239C230.451 83.2064 230.654 83.0379 230.817 82.8182C230.98 82.5985 231.091 82.3314 231.152 82.017H233.118C233.069 82.6345 232.887 83.1818 232.572 83.6591C232.258 84.1326 231.83 84.5038 231.288 84.7727C230.747 85.0379 230.11 85.1705 229.379 85.1705ZM238.67 85.1705C237.795 85.1705 237.04 84.9886 236.403 84.625C235.771 84.2576 235.284 83.7386 234.943 83.0682C234.602 82.3939 234.432 81.6004 234.432 80.6875C234.432 79.7898 234.602 79.0019 234.943 78.3239C235.288 77.642 235.769 77.1117 236.386 76.733C237.004 76.3504 237.729 76.1591 238.562 76.1591C239.1 76.1591 239.608 76.2462 240.085 76.4205C240.566 76.5909 240.991 76.8561 241.358 77.2159C241.729 77.5758 242.021 78.0341 242.233 78.5909C242.445 79.1439 242.551 79.803 242.551 80.5682V81.1989H235.398V79.8125H240.58C240.576 79.4186 240.491 79.0682 240.324 78.7614C240.157 78.4508 239.924 78.2064 239.625 78.0284C239.33 77.8504 238.985 77.7614 238.591 77.7614C238.17 77.7614 237.801 77.8636 237.483 78.0682C237.165 78.2689 236.917 78.5341 236.739 78.8636C236.564 79.1894 236.475 79.5473 236.472 79.9375V81.1477C236.472 81.6553 236.564 82.0909 236.75 82.4545C236.936 82.8144 237.195 83.0909 237.528 83.2841C237.862 83.4735 238.252 83.5682 238.699 83.5682C238.998 83.5682 239.269 83.5265 239.511 83.4432C239.754 83.3561 239.964 83.2292 240.142 83.0625C240.32 82.8958 240.455 82.6894 240.545 82.4432L242.466 82.6591C242.345 83.1667 242.114 83.6098 241.773 83.9886C241.436 84.3636 241.004 84.6553 240.477 84.8636C239.951 85.0682 239.348 85.1705 238.67 85.1705ZM244.382 85V73.3636H246.439V77.7159H246.524C246.63 77.5038 246.78 77.2784 246.973 77.0398C247.166 76.7973 247.428 76.5909 247.757 76.4205C248.087 76.2462 248.507 76.1591 249.018 76.1591C249.693 76.1591 250.301 76.3314 250.842 76.6761C251.388 77.017 251.82 77.5227 252.138 78.1932C252.46 78.8598 252.621 79.678 252.621 80.6477C252.621 81.6061 252.464 82.4205 252.149 83.0909C251.835 83.7614 251.407 84.2727 250.865 84.625C250.323 84.9773 249.71 85.1534 249.024 85.1534C248.524 85.1534 248.109 85.0701 247.78 84.9034C247.45 84.7367 247.185 84.536 246.984 84.3011C246.787 84.0625 246.634 83.8371 246.524 83.625H246.405V85H244.382ZM246.399 80.6364C246.399 81.2008 246.479 81.6951 246.638 82.1193C246.801 82.5436 247.034 82.875 247.337 83.1136C247.643 83.3485 248.015 83.4659 248.45 83.4659C248.905 83.4659 249.286 83.3447 249.592 83.1023C249.899 82.8561 250.13 82.5208 250.286 82.0966C250.445 81.6686 250.524 81.1818 250.524 80.6364C250.524 80.0947 250.446 79.6136 250.291 79.1932C250.136 78.7727 249.905 78.4432 249.598 78.2045C249.291 77.9659 248.909 77.8466 248.45 77.8466C248.011 77.8466 247.638 77.9621 247.331 78.1932C247.024 78.4242 246.791 78.7481 246.632 79.1648C246.477 79.5814 246.399 80.072 246.399 80.6364ZM258.176 85.1705C257.324 85.1705 256.585 84.983 255.96 84.608C255.335 84.233 254.85 83.7083 254.506 83.0341C254.165 82.3598 253.994 81.572 253.994 80.6705C253.994 79.7689 254.165 78.9792 254.506 78.3011C254.85 77.6231 255.335 77.0966 255.96 76.7216C256.585 76.3466 257.324 76.1591 258.176 76.1591C259.028 76.1591 259.767 76.3466 260.392 76.7216C261.017 77.0966 261.5 77.6231 261.841 78.3011C262.186 78.9792 262.358 79.7689 262.358 80.6705C262.358 81.572 262.186 82.3598 261.841 83.0341C261.5 83.7083 261.017 84.233 260.392 84.608C259.767 84.983 259.028 85.1705 258.176 85.1705ZM258.188 83.5227C258.65 83.5227 259.036 83.3958 259.347 83.142C259.657 82.8845 259.888 82.5398 260.04 82.108C260.195 81.6761 260.273 81.1951 260.273 80.6648C260.273 80.1307 260.195 79.6477 260.04 79.2159C259.888 78.7803 259.657 78.4337 259.347 78.1761C259.036 77.9186 258.65 77.7898 258.188 77.7898C257.714 77.7898 257.32 77.9186 257.006 78.1761C256.695 78.4337 256.462 78.7803 256.307 79.2159C256.155 79.6477 256.08 80.1307 256.08 80.6648C256.08 81.1951 256.155 81.6761 256.307 82.108C256.462 82.5398 256.695 82.8845 257.006 83.142C257.32 83.3958 257.714 83.5227 258.188 83.5227ZM267.911 85.1705C267.058 85.1705 266.32 84.983 265.695 84.608C265.07 84.233 264.585 83.7083 264.24 83.0341C263.899 82.3598 263.729 81.572 263.729 80.6705C263.729 79.7689 263.899 78.9792 264.24 78.3011C264.585 77.6231 265.07 77.0966 265.695 76.7216C266.32 76.3466 267.058 76.1591 267.911 76.1591C268.763 76.1591 269.501 76.3466 270.126 76.7216C270.751 77.0966 271.234 77.6231 271.575 78.3011C271.92 78.9792 272.092 79.7689 272.092 80.6705C272.092 81.572 271.92 82.3598 271.575 83.0341C271.234 83.7083 270.751 84.233 270.126 84.608C269.501 84.983 268.763 85.1705 267.911 85.1705ZM267.922 83.5227C268.384 83.5227 268.77 83.3958 269.081 83.142C269.392 82.8845 269.623 82.5398 269.774 82.108C269.929 81.6761 270.007 81.1951 270.007 80.6648C270.007 80.1307 269.929 79.6477 269.774 79.2159C269.623 78.7803 269.392 78.4337 269.081 78.1761C268.77 77.9186 268.384 77.7898 267.922 77.7898C267.448 77.7898 267.054 77.9186 266.74 78.1761C266.429 78.4337 266.196 78.7803 266.041 79.2159C265.89 79.6477 265.814 80.1307 265.814 80.6648C265.814 81.1951 265.89 81.6761 266.041 82.108C266.196 82.5398 266.429 82.8845 266.74 83.142C267.054 83.3958 267.448 83.5227 267.922 83.5227ZM275.713 82.2614L275.707 79.7784H276.037L279.173 76.2727H281.577L277.719 80.5682H277.293L275.713 82.2614ZM273.838 85V73.3636H275.895V85H273.838ZM279.315 85L276.474 81.0284L277.861 79.5795L281.776 85H279.315Z" fill="#344054"/>
<rect x="2.5" y="57.5" width="359" height="43" rx="7.5" stroke="#D0D5DD"/>
</g>
<defs>
<filter id="filter0_d_155_1043" x="0" y="0" width="364" height="48" filterUnits="userSpaceOnUse" color-interpolation-filters="sRGB">
<feFlood flood-opacity="0" result="BackgroundImageFix"/>
<feColorMatrix in="SourceAlpha" type="matrix" values="0 0 0 0 0 0 0 0 0 0 0 0 0 0 0 0 0 0 127 0" result="hardAlpha"/>
<feOffset dy="1"/>
<feGaussianBlur stdDeviation="1"/>
<feColorMatrix type="matrix" values="0 0 0 0 0.0627451 0 0 0 0 0.0941176 0 0 0 0 0.156863 0 0 0 0.05 0"/>
<feBlend mode="normal" in2="BackgroundImageFix" result="effect1_dropShadow_155_1043"/>
<feBlend mode="normal" in="SourceGraphic" in2="effect1_dropShadow_155_1043" result="shape"/>
</filter>
<filter id="filter1_d_155_1043" x="0" y="56" width="364" height="48" filterUnits="userSpaceOnUse" color-interpolation-filters="sRGB">
<feFlood flood-opacity="0" result="BackgroundImageFix"/>
<feColorMatrix in="SourceAlpha" type="matrix" values="0 0 0 0 0 0 0 0 0 0 0 0 0 0 0 0 0 0 127 0" result="hardAlpha"/>
<feOffset dy="1"/>
<feGaussianBlur stdDeviation="1"/>
<feColorMatrix type="matrix" values="0 0 0 0 0.0627451 0 0 0 0 0.0941176 0 0 0 0 0.156863 0 0 0 0.05 0"/>
<feBlend mode="normal" in2="BackgroundImageFix" result="effect1_dropShadow_155_1043"/>
<feBlend mode="normal" in="SourceGraphic" in2="effect1_dropShadow_155_1043" result="shape"/>
</filter>
<clipPath id="clip0_155_1043">
<rect width="24" height="24" fill="white" transform="translate(92 11)"/>
</clipPath>
<clipPath id="clip1_155_1043">
<rect width="24" height="24" fill="white" transform="translate(81.5 67)"/>
</clipPath>
</defs>
</svg>
